<?xml version="1.0" encoding="UTF-8" standalone="no"?>
<!DOCTYPE svg PUBLIC "-//W3C//DTD SVG 1.1//EN" "http://www.w3.org/Graphics/SVG/1.1/DTD/svg11.dtd">
<svg width="100%" height="100%" viewBox="0 0 200 200" version="1.1" xmlns="http://www.w3.org/2000/svg" xmlns:xlink="http://www.w3.org/1999/xlink" xml:space="preserve" xmlns:serif="http://www.serif.com/" style="fill-rule:evenodd;clip-rule:evenodd;stroke-linejoin:round;stroke-miterlimit:2;">
    <g transform="matrix(9.377,0,0,9.377,-3841.49,-3686.85)">
        <path d="M417.801,402.872L420.957,402.872C421.453,402.872 421.805,402.776 422.013,402.584C422.229,402.384 422.421,402.004 422.589,401.444C422.669,401.172 422.785,400.976 422.937,400.856C423.089,400.736 423.265,400.676 423.465,400.676C423.889,400.676 424.157,400.912 424.269,401.384L425.205,405.164C425.277,405.46 425.273,405.696 425.193,405.872C425.121,406.04 424.969,406.164 424.737,406.244C424.513,406.324 424.301,406.336 424.101,406.28C423.909,406.224 423.745,406.096 423.609,405.896C423.353,405.528 423.117,405.248 422.901,405.056C422.693,404.864 422.457,404.732 422.193,404.66C421.937,404.588 421.601,404.552 421.185,404.552L417.801,404.552L417.801,402.872ZM412.653,396.26C412.653,396.004 412.737,395.804 412.905,395.66C413.073,395.516 413.333,395.444 413.685,395.444L422.733,395.444C423.101,395.444 423.405,395.408 423.645,395.336C423.885,395.264 424.109,395.192 424.317,395.12C424.533,395.048 424.781,395.012 425.061,395.012C425.421,395.012 425.693,395.116 425.877,395.324C426.061,395.524 426.221,395.852 426.357,396.308L427.377,399.68C427.465,399.968 427.465,400.208 427.377,400.4C427.289,400.592 427.121,400.732 426.873,400.82C426.585,400.924 426.325,400.924 426.093,400.82C425.869,400.716 425.685,400.528 425.541,400.256C425.197,399.624 424.873,399.108 424.569,398.708C424.265,398.3 423.957,397.984 423.645,397.76C423.341,397.536 423.017,397.38 422.673,397.292C422.337,397.204 421.957,397.16 421.533,397.16L419.913,397.16L419.913,409.064C419.913,409.552 420.033,409.92 420.273,410.168C420.521,410.408 420.873,410.528 421.329,410.528L421.893,410.528C422.493,410.528 423.021,410.436 423.477,410.252C423.941,410.06 424.381,409.708 424.797,409.196C425.213,408.676 425.653,407.928 426.117,406.952C426.237,406.696 426.397,406.524 426.597,406.436C426.805,406.34 427.037,406.316 427.293,406.364C427.573,406.42 427.777,406.552 427.905,406.76C428.033,406.96 428.053,407.212 427.965,407.516L426.849,411.38C426.721,411.82 426.561,412.144 426.369,412.352C426.185,412.568 425.897,412.676 425.505,412.676C425.257,412.676 425.029,412.64 424.821,412.568C424.621,412.496 424.397,412.424 424.149,412.352C423.909,412.28 423.605,412.244 423.237,412.244L413.685,412.244C413.333,412.244 413.073,412.172 412.905,412.028C412.737,411.876 412.653,411.676 412.653,411.428C412.653,410.996 412.861,410.7 413.277,410.54L413.733,410.372C413.941,410.292 414.093,410.192 414.189,410.072C414.293,409.944 414.345,409.78 414.345,409.58L414.345,398.108C414.345,397.908 414.293,397.748 414.189,397.628C414.093,397.5 413.941,397.396 413.733,397.316L413.277,397.148C412.861,396.988 412.653,396.692 412.653,396.26Z" style="fill:rgb(25,118,210);fill-rule:nonzero;"/>
    </g>
</svg>
